<svg width="173" height="51" viewBox="0 0 173 51" fill="none" xmlns="http://www.w3.org/2000/svg">
<path d="M36.9696 50.5091H8.73658C4.09694 50.5091 0.336792 46.3168 0.336792 41.144V9.66678C0.336792 4.494 4.09694 0.301758 8.73658 0.301758H36.9696C41.6092 0.301758 45.3694 4.494 45.3694 9.66678V41.144C45.3694 46.3168 41.6092 50.5091 36.9696 50.5091Z" fill="#303030"/>
<path d="M30.967 25.8674C31.77 26.9901 32.1779 28.2975 32.1779 29.7754C32.1779 31.9497 31.5278 33.655 30.2277 34.8629C28.9276 36.0709 27.0666 36.6962 24.6448 36.6962H14.0654V11.3296H24.3899C26.7097 11.3296 28.4942 11.898 29.7561 13.0207C31.018 14.1434 31.6553 15.7492 31.6553 17.824C31.6553 19.3588 31.2857 20.6236 30.5591 21.6467C29.8326 22.6699 28.8766 23.3236 27.6912 23.6363C29.0805 24.0058 30.164 24.7447 30.967 25.8674ZM19.5591 21.7036H23.1663C25.0782 21.7036 26.0342 20.7941 26.0342 18.9751C26.0342 17.1561 25.0527 16.2466 23.1025 16.2466H19.5591V21.7036ZM26.544 28.9228C26.544 28.0133 26.2764 27.3027 25.741 26.7911C25.2057 26.2795 24.4409 26.0237 23.4594 26.0237H19.5718V31.7223H23.4977C25.5243 31.7081 26.544 30.7844 26.544 28.9228Z" fill="white"/>
<path d="M71.4621 36.6962L66.542 27.118H65.2929V36.6962H59.7865V11.3296H69.1805C70.9777 11.3296 72.5073 11.6707 73.7437 12.367C74.9928 13.0633 75.9233 14.0155 76.5478 15.2234C77.1724 16.4313 77.4783 17.8098 77.4783 19.373C77.4783 21.2204 77.0195 22.7836 76.1145 24.0768C75.1967 25.37 73.8839 26.2511 72.1376 26.7343L77.5421 36.7104H71.4621V36.6962ZM65.2929 22.9257H68.6961C69.7923 22.9257 70.5953 22.6557 71.1052 22.1157C71.6151 21.5757 71.8827 20.7799 71.8827 19.7283C71.8827 18.7193 71.615 17.9377 71.0924 17.355C70.5698 16.7866 69.7668 16.4882 68.6961 16.4882H65.2929V22.9257Z" fill="#303030"/>
<path d="M102.385 32.0779H93.8577L92.4428 36.7106H86.656L94.9921 11.5288H101.327L109.663 36.7106H103.813L102.385 32.0779ZM100.97 27.4024L98.1404 18.0801L95.2725 27.4024H100.97Z" fill="#303030"/>
<path d="M140.037 36.6962H134.531L125.328 21.1209V36.6962H119.822V11.3296H125.328L134.531 27.0469V11.3296H140.037V36.6962Z" fill="#303030"/>
<path d="M170.91 30.5854C169.954 32.5039 168.577 34.0102 166.793 35.0903C164.996 36.1703 162.892 36.7103 160.471 36.7103H151.88V11.3438H160.471C162.918 11.3438 165.034 11.8696 166.806 12.9212C168.59 13.9728 169.954 15.4507 170.91 17.3692C171.866 19.2877 172.337 21.4762 172.337 23.9773C172.337 26.45 171.853 28.6527 170.91 30.5854ZM164.983 29.3064C166.168 28.0416 166.767 26.251 166.767 23.9631C166.767 21.6609 166.168 19.8845 164.983 18.6198C163.797 17.355 162.128 16.7155 159.974 16.7155H157.373V31.2107H159.974C162.128 31.2107 163.797 30.5854 164.983 29.3064Z" fill="#303030"/>
</svg>
